<svg xmlns="http://www.w3.org/2000/svg" viewBox="0 0 271.61 107.97"><defs><style>.cls-1{fill:none;}.cls-2{fill:#465229;}.cls-3{fill:#95be1f;}.cls-4{fill:#9ec42a;}.cls-5{fill:#dbe7b3;}.cls-6{fill:#b5cf5a;}.cls-7{fill:#c9db88;}.cls-8{fill:#333f1b;}.cls-9{fill:#64802b;}.cls-10{fill:#aecb41;}.cls-11{fill:#c4d772;}.cls-12,.cls-14{fill:#a4c636;}.cls-13,.cls-14{font-size:30.56px;font-family:Ubuntu-Bold, Ubuntu, Arial, sans-serif;font-weight:700;}.cls-13{fill:#333;}</style></defs><title>logo</title><g id="Warstwa_2" data-name="Warstwa 2"><g id="Layer_1" data-name="Layer 1"><polygon class="cls-1" points="43.5 87.92 43.5 87.92 43.5 87.92 43.5 87.92"/><polygon class="cls-1" points="34.13 95.57 34.13 95.57 34.13 95.57 34.13 95.57"/><polygon class="cls-2" points="0.09 88.73 12.76 81.38 17.2 98.56 0.09 88.73"/><polygon class="cls-3" points="17.2 98.56 33.54 93.31 33.58 107.97 17.2 98.56"/><polygon class="cls-4" points="33.54 93.31 50.28 98.27 33.58 107.97 33.54 93.31"/><polygon class="cls-5" points="66.98 88.58 50.28 98.27 54.27 81.28 66.98 88.58"/><polygon class="cls-6" points="33.54 93.31 43.91 87.3 50.28 98.27 33.54 93.31"/><polygon class="cls-7" points="50.28 98.27 43.91 87.3 54.27 81.28 50.28 98.27"/><polygon class="cls-8" points="17.2 98.56 12.76 81.38 23.15 87.35 17.2 98.56 17.2 98.56"/><polygon class="cls-9" points="17.2 98.56 23.15 87.35 33.54 93.31 17.2 98.56"/><polygon class="cls-2" points="66.89 21.24 54.22 28.59 49.78 11.41 66.89 21.24"/><polygon class="cls-3" points="49.78 11.41 33.44 16.66 33.4 2 49.78 11.41"/><polygon class="cls-4" points="33.44 16.66 16.7 11.7 33.4 2 33.44 16.66"/><polygon class="cls-5" points="0 21.39 16.7 11.7 12.71 28.69 0 21.39"/><polygon class="cls-6" points="33.44 16.66 23.07 22.67 16.7 11.7 33.44 16.66"/><polygon class="cls-7" points="16.7 11.7 23.07 22.67 12.71 28.69 16.7 11.7"/><polygon class="cls-8" points="49.78 11.41 54.22 28.59 43.83 22.63 49.78 11.41 49.78 11.41"/><polygon class="cls-9" points="49.78 11.41 43.83 22.63 33.44 16.66 49.78 11.41"/><polygon class="cls-3" points="20.84 54.88 33.53 47.54 37.94 64.73 20.84 54.88"/><polygon class="cls-7" points="37.94 64.73 54.29 59.51 54.3 74.17 37.94 64.73"/><polygon class="cls-10" points="0.09 42.9 16.81 37.9 0.09 28.24 0.09 42.9"/><polygon class="cls-11" points="33.53 47.54 16.8 37.9 20.84 54.88 33.53 47.54"/><polygon class="cls-12" points="0.09 42.9 10.46 48.89 16.81 37.9 0.09 42.9"/><polygon class="cls-10" points="16.81 37.9 10.46 48.89 20.84 54.88 16.81 37.9"/><polygon class="cls-4" points="37.94 64.73 33.53 47.54 43.91 53.53 37.94 64.73 37.94 64.73"/><polygon class="cls-6" points="37.95 64.75 43.9 53.53 54.29 59.49 37.95 64.75"/><polygon class="cls-5" points="54.32 59.53 66.89 66.78 54.3 74.15 54.32 59.53"/><polygon class="cls-7" points="54.27 74.14 66.89 66.78 66.89 81.29 54.27 74.14"/><text class="cls-13" transform="translate(81.3 98.09)">jsmigielski.pl</text><text class="cls-14" transform="translate(78.43 25.87)">Jan<tspan x="0" y="36.68">Śmigielski</tspan></text></g></g></svg>