<svg xmlns="http://www.w3.org/2000/svg" viewBox="0 0 210 210"><defs><style>.cls-1{fill:none;}.cls-2{fill:none;}.cls-3{fill:#465229;}.cls-4{fill:#95be1f;}.cls-5{fill:#9ec42a;}.cls-6{fill:#dbe7b3;}.cls-7{fill:#b5cf5a;}.cls-8{fill:#c9db88;}.cls-9{fill:#333f1b;}.cls-10{fill:#64802b;}.cls-11{fill:#aecb41;}.cls-12{fill:#c4d772;}.cls-13{fill:#a4c636;}</style></defs><title>Zasób 33</title><g id="Warstwa_2" data-name="Warstwa 2"><g id="Layer_1" data-name="Layer 1"><rect class="cls-1" width="210" height="210"/><polygon class="cls-2" points="106.21 181.51 106.21 181.51 106.21 181.51 106.21 181.51"/><polygon class="cls-3" points="42.03 168.62 65.92 154.75 74.29 187.14 42.03 168.62"/><polygon class="cls-4" points="74.29 187.14 105.1 177.25 105.16 204.87 74.29 187.14"/><polygon class="cls-5" points="105.1 177.25 136.65 186.6 105.16 204.87 105.1 177.25"/><polygon class="cls-6" points="168.13 168.32 136.65 186.6 144.17 154.57 168.13 168.32"/><polygon class="cls-7" points="105.1 177.25 124.64 165.91 136.65 186.6 105.1 177.25"/><polygon class="cls-8" points="136.65 186.6 124.64 165.91 144.17 154.57 136.65 186.6"/><polygon class="cls-9" points="74.29 187.14 65.92 154.75 85.51 166 74.29 187.14 74.29 187.14"/><polygon class="cls-10" points="74.29 187.14 85.51 166 105.1 177.25 74.29 187.14"/><polygon class="cls-3" points="167.97 41.38 144.08 55.25 135.71 22.86 167.97 41.38"/><polygon class="cls-4" points="135.71 22.86 104.9 32.75 104.84 5.13 135.71 22.86"/><polygon class="cls-5" points="104.9 32.75 73.35 23.4 104.84 5.13 104.9 32.75"/><polygon class="cls-6" points="41.87 41.67 73.35 23.4 65.83 55.43 41.87 41.67"/><polygon class="cls-7" points="104.9 32.75 85.36 44.09 73.35 23.4 104.9 32.75"/><polygon class="cls-8" points="73.35 23.4 85.36 44.09 65.83 55.43 73.35 23.4"/><polygon class="cls-9" points="135.71 22.86 144.08 55.25 124.49 44 135.71 22.86 135.71 22.86"/><polygon class="cls-10" points="135.71 22.86 124.49 44 104.9 32.75 135.71 22.86"/><polygon class="cls-4" points="81.16 104.8 105.07 90.97 113.39 123.38 81.16 104.8"/><polygon class="cls-8" points="113.39 123.37 144.22 113.53 144.24 141.16 113.39 123.37"/><polygon class="cls-11" points="42.03 82.21 73.56 72.79 42.03 54.59 42.03 82.21"/><polygon class="cls-12" points="105.08 90.97 73.53 72.8 81.16 104.8 105.08 90.97"/><polygon class="cls-13" points="42.03 82.21 61.6 93.51 73.56 72.79 42.03 82.21"/><polygon class="cls-11" points="73.56 72.79 61.6 93.51 81.16 104.8 73.56 72.79"/><polygon class="cls-5" points="113.39 123.38 105.07 90.97 124.64 102.25 113.39 123.37 113.39 123.38"/><polygon class="cls-7" points="113.41 123.4 124.63 102.25 144.22 113.5 113.41 123.4"/><polygon class="cls-6" points="144.27 113.57 167.97 127.22 144.24 141.12 144.27 113.57"/><polygon class="cls-8" points="144.18 141.11 167.97 127.22 167.97 154.58 144.18 141.11"/></g></g></svg>